<?xml version="1.0" encoding="utf-8"?>
<!-- Generator: Adobe Illustrator 22.1.0, SVG Export Plug-In . SVG Version: 6.00 Build 0)  -->
<svg version="1.1" id="レイヤー_1" xmlns="http://www.w3.org/2000/svg" xmlns:xlink="http://www.w3.org/1999/xlink" x="0px"
	 y="0px" viewBox="0 0 167 164" style="enable-background:new 0 0 167 164;" xml:space="preserve">
<g>
	<g>
		<g>
			<path style="fill:#53C3F4;" d="M153,146c2.8,0,3.9-1.9,2.5-4.3L84.8,19.3c-1.4-2.4-3.6-2.4-5,0L62.2,49.9c-1.4,2.4-1.4,6.3,0,8.7
				l47.5,83.1c1.4,2.4,4.7,4.3,7.5,4.3H153z"/>
		</g>
		<g>
			<path style="fill:#00A4FC;" d="M9.2,141.7c-1.4,2.4-0.2,4.3,2.5,4.3h82.8c2.8,0,3.9-2,2.5-4.3l-41.2-72c-1.4-2.4-3.6-2.4-5,0
				L9.2,141.7z"/>
		</g>
	</g>
</g>
<g>
</g>
<g>
</g>
<g>
</g>
<g>
</g>
<g>
</g>
<g>
</g>
<g>
</g>
<g>
</g>
<g>
</g>
<g>
</g>
<g>
</g>
<g>
</g>
<g>
</g>
<g>
</g>
<g>
</g>
</svg>
